<svg width="64" height="64" viewBox="0 0 64 64" fill="none" xmlns="http://www.w3.org/2000/svg">
<circle cx="32" cy="32" r="32" fill="#108938"/>
<path d="M40.752 24.128C41.008 25.3227 41.136 26.8587 41.136 28.736C41.136 30.6133 40.3893 32.64 38.896 34.816C37.4453 36.992 36.1013 38.464 34.864 39.232C34.1387 38.9333 33.456 38.4427 32.816 37.76C33.2853 36.352 34.6293 34.3893 36.848 31.872C37.36 31.232 37.6587 30.8693 37.744 30.784C36.2507 30.784 35.2267 30.7413 34.672 30.656C34.416 29.8453 34.288 28.736 34.288 27.328C34.288 25.92 34.3307 24.9173 34.416 24.32C35.3547 24.1067 36.336 24 37.36 24C38.4267 24 39.5573 24.0427 40.752 24.128ZM29.936 24.128C30.192 25.3227 30.32 26.8587 30.32 28.736C30.32 30.6133 29.5733 32.64 28.08 34.816C26.6293 36.992 25.2853 38.464 24.048 39.232C23.3227 38.9333 22.64 38.4427 22 37.76C22.4693 36.352 23.792 34.3893 25.968 31.872C26.5227 31.232 26.8427 30.8693 26.928 30.784C25.4347 30.784 24.4107 30.7413 23.856 30.656C23.6 29.8453 23.472 28.736 23.472 27.328C23.472 25.92 23.5147 24.9173 23.6 24.32C24.5387 24.1067 25.52 24 26.544 24C27.6107 24 28.7413 24.0427 29.936 24.128Z" fill="white"/>
</svg>
